<?xml version="1.0" encoding="UTF-8"?>
<svg width="980px" height="180px" viewBox="0 0 980 180" version="1.1" xmlns="http://www.w3.org/2000/svg" xmlns:xlink="http://www.w3.org/1999/xlink">
    <g id="banner" stroke="none" stroke-width="1" fill="none" fill-rule="evenodd">
        <g id="Group" transform="translate(308.500000, 68.000000)" fill="#0A091A">
            <path d="M85.27,31.5 L85.27,23.64 C85.27,22.2 85.695,21.165 86.545,20.535 C87.395,19.905 88.66,19.6 90.34,19.62 L90.34,19.62 L90.34,15.57 C87.96,15.59 86.27,16.67 85.27,18.81 L85.27,18.81 L85.27,15.81 L80.92,15.81 L80.92,31.5 L85.27,31.5 Z M100.12,31.83 C102.26,31.83 103.98,31.375 105.28,30.465 C106.58,29.555 107.36,28.25 107.62,26.55 L107.62,26.55 L103.51,26.55 C103.21,28.01 102.12,28.74 100.24,28.74 C99.06,28.74 98.13,28.38 97.45,27.66 C96.77,26.94 96.4,25.93 96.34,24.63 L96.34,24.63 L107.65,24.63 L107.65,23.43 C107.65,20.79 106.925,18.8 105.475,17.46 C104.025,16.12 102.2,15.45 100,15.45 C97.68,15.45 95.755,16.2 94.225,17.7 C92.695,19.2 91.93,21.17 91.93,23.61 L91.93,23.61 L91.93,23.85 C91.93,26.31 92.69,28.255 94.21,29.685 C95.73,31.115 97.7,31.83 100.12,31.83 Z M103.42,21.96 L96.4,21.96 C96.56,20.84 96.955,19.975 97.585,19.365 C98.215,18.755 99.02,18.45 100,18.45 C102.14,18.45 103.28,19.62 103.42,21.96 L103.42,21.96 Z M114.88,31.83 C116.98,31.83 118.56,31.09 119.62,29.61 L119.62,29.61 L119.62,31.5 L123.85,31.5 L123.85,21.27 C123.85,17.39 121.66,15.45 117.28,15.45 C115.26,15.45 113.61,15.9 112.33,16.8 C111.05,17.7 110.35,19.04 110.23,20.82 L110.23,20.82 L114.34,20.82 C114.54,19.34 115.43,18.6 117.01,18.6 C117.95,18.6 118.61,18.835 118.99,19.305 C119.37,19.775 119.56,20.5 119.56,21.48 L119.56,21.48 L119.56,22.11 L117.79,22.11 C112.35,22.11 109.63,23.79 109.63,27.15 C109.63,28.71 110.12,29.88 111.1,30.66 C112.08,31.44 113.34,31.83 114.88,31.83 Z M116.17,28.8 C114.65,28.8 113.89,28.17 113.89,26.91 C113.89,26.11 114.225,25.54 114.895,25.2 C115.565,24.86 116.56,24.69 117.88,24.69 L117.88,24.69 L119.56,24.69 L119.56,26.01 C119.56,26.87 119.24,27.55 118.6,28.05 C117.96,28.55 117.15,28.8 116.17,28.8 Z M134.68,31.83 C136.92,31.83 138.7,31.255 140.02,30.105 C141.34,28.955 142.06,27.43 142.18,25.53 L142.18,25.53 L138.25,25.53 C138.15,26.51 137.79,27.26 137.17,27.78 C136.55,28.3 135.79,28.56 134.89,28.56 C133.67,28.56 132.725,28.155 132.055,27.345 C131.385,26.535 131.05,25.35 131.05,23.79 L131.05,23.79 L131.05,23.55 C131.05,22.07 131.39,20.92 132.07,20.1 C132.75,19.28 133.66,18.87 134.8,18.87 C136.62,18.87 137.68,19.76 137.98,21.54 L137.98,21.54 L142.09,21.54 C141.91,19.44 141.135,17.9 139.765,16.92 C138.395,15.94 136.71,15.45 134.71,15.45 C132.41,15.45 130.485,16.195 128.935,17.685 C127.385,19.175 126.61,21.15 126.61,23.61 L126.61,23.61 L126.61,23.85 C126.61,26.35 127.365,28.305 128.875,29.715 C130.385,31.125 132.32,31.83 134.68,31.83 Z M150.64,31.8 C151.6,31.8 152.48,31.66 153.28,31.38 L153.28,31.38 L153.28,28.02 C152.8,28.22 152.25,28.32 151.63,28.32 C150.47,28.32 149.89,27.7 149.89,26.46 L149.89,26.46 L149.89,18.9 L153.19,18.9 L153.19,15.81 L149.89,15.81 L149.89,12.42 L145.57,12.42 L145.57,15.81 L143.56,15.81 L143.56,18.9 L145.57,18.9 L145.57,26.85 C145.57,28.47 146,29.7 146.86,30.54 C147.72,31.38 148.98,31.8 150.64,31.8 Z M163.6,24.78 L163.6,21.33 L155.92,21.33 L155.92,24.78 L163.6,24.78 Z M171.49,31.5 L171.49,22.44 C171.49,21.32 171.79,20.465 172.39,19.875 C172.99,19.285 173.78,18.99 174.76,18.99 C175.72,18.99 176.42,19.245 176.86,19.755 C177.3,20.265 177.52,21.06 177.52,22.14 L177.52,22.14 L177.52,31.5 L181.87,31.5 L181.87,21.51 C181.87,19.49 181.395,17.975 180.445,16.965 C179.495,15.955 178.21,15.45 176.59,15.45 C175.35,15.45 174.295,15.715 173.425,16.245 C172.555,16.775 171.91,17.46 171.49,18.3 L171.49,18.3 L171.49,15.81 L167.14,15.81 L167.14,31.5 L171.49,31.5 Z M189.82,31.83 C191.92,31.83 193.5,31.09 194.56,29.61 L194.56,29.61 L194.56,31.5 L198.79,31.5 L198.79,21.27 C198.79,17.39 196.6,15.45 192.22,15.45 C190.2,15.45 188.55,15.9 187.27,16.8 C185.99,17.7 185.29,19.04 185.17,20.82 L185.17,20.82 L189.28,20.82 C189.48,19.34 190.37,18.6 191.95,18.6 C192.89,18.6 193.55,18.835 193.93,19.305 C194.31,19.775 194.5,20.5 194.5,21.48 L194.5,21.48 L194.5,22.11 L192.73,22.11 C187.29,22.11 184.57,23.79 184.57,27.15 C184.57,28.71 185.06,29.88 186.04,30.66 C187.02,31.44 188.28,31.83 189.82,31.83 Z M191.11,28.8 C189.59,28.8 188.83,28.17 188.83,26.91 C188.83,26.11 189.165,25.54 189.835,25.2 C190.505,24.86 191.5,24.69 192.82,24.69 L192.82,24.69 L194.5,24.69 L194.5,26.01 C194.5,26.87 194.18,27.55 193.54,28.05 C192.9,28.55 192.09,28.8 191.11,28.8 Z M208.24,31.8 C209.2,31.8 210.08,31.66 210.88,31.38 L210.88,31.38 L210.88,28.02 C210.4,28.22 209.85,28.32 209.23,28.32 C208.07,28.32 207.49,27.7 207.49,26.46 L207.49,26.46 L207.49,18.9 L210.79,18.9 L210.79,15.81 L207.49,15.81 L207.49,12.42 L203.17,12.42 L203.17,15.81 L201.16,15.81 L201.16,18.9 L203.17,18.9 L203.17,26.85 C203.17,28.47 203.6,29.7 204.46,30.54 C205.32,31.38 206.58,31.8 208.24,31.8 Z M216.07,13.68 C216.77,13.68 217.36,13.46 217.84,13.02 C218.32,12.56 218.56,11.99 218.56,11.31 C218.56,10.63 218.32,10.065 217.84,9.615 C217.36,9.165 216.77,8.94 216.07,8.94 C215.37,8.94 214.785,9.165 214.315,9.615 C213.845,10.065 213.61,10.63 213.61,11.31 C213.61,11.99 213.845,12.555 214.315,13.005 C214.785,13.455 215.37,13.68 216.07,13.68 Z M218.26,31.5 L218.26,15.81 L213.94,15.81 L213.94,31.5 L218.26,31.5 Z M231.37,31.5 L237.07,15.81 L232.87,15.81 L229.15,27.03 L225.4,15.81 L220.75,15.81 L226.48,31.5 L231.37,31.5 Z M245.89,31.83 C248.03,31.83 249.75,31.375 251.05,30.465 C252.35,29.555 253.13,28.25 253.39,26.55 L253.39,26.55 L249.28,26.55 C248.98,28.01 247.89,28.74 246.01,28.74 C244.83,28.74 243.9,28.38 243.22,27.66 C242.54,26.94 242.17,25.93 242.11,24.63 L242.11,24.63 L253.42,24.63 L253.42,23.43 C253.42,20.79 252.695,18.8 251.245,17.46 C249.795,16.12 247.97,15.45 245.77,15.45 C243.45,15.45 241.525,16.2 239.995,17.7 C238.465,19.2 237.7,21.17 237.7,23.61 L237.7,23.61 L237.7,23.85 C237.7,26.31 238.46,28.255 239.98,29.685 C241.5,31.115 243.47,31.83 245.89,31.83 Z M249.19,21.96 L242.17,21.96 C242.33,20.84 242.725,19.975 243.355,19.365 C243.985,18.755 244.79,18.45 245.77,18.45 C247.91,18.45 249.05,19.62 249.19,21.96 L249.19,21.96 Z M263.65,24.78 L263.65,21.33 L255.97,21.33 L255.97,24.78 L263.65,24.78 Z M272.89,31.83 C274.99,31.83 276.615,31.39 277.765,30.51 C278.915,29.63 279.49,28.35 279.49,26.67 C279.49,25.09 279.005,23.95 278.035,23.25 C277.065,22.55 275.52,22.05 273.4,21.75 C272.24,21.59 271.445,21.39 271.015,21.15 C270.585,20.91 270.37,20.54 270.37,20.04 C270.37,19.56 270.565,19.17 270.955,18.87 C271.345,18.57 271.89,18.42 272.59,18.42 C273.99,18.42 274.81,19.05 275.05,20.31 L275.05,20.31 L279.04,20.31 C278.68,17.07 276.52,15.45 272.56,15.45 C270.84,15.45 269.375,15.875 268.165,16.725 C266.955,17.575 266.35,18.78 266.35,20.34 C266.35,21.84 266.785,22.95 267.655,23.67 C268.525,24.39 270.02,24.91 272.14,25.23 C273.3,25.39 274.12,25.61 274.6,25.89 C275.08,26.17 275.32,26.57 275.32,27.09 C275.32,28.23 274.5,28.8 272.86,28.8 C271.96,28.8 271.3,28.615 270.88,28.245 C270.46,27.875 270.2,27.32 270.1,26.58 L270.1,26.58 L266.05,26.58 C266.13,28.28 266.76,29.58 267.94,30.48 C269.12,31.38 270.77,31.83 272.89,31.83 Z M287.98,31.8 C288.94,31.8 289.82,31.66 290.62,31.38 L290.62,31.38 L290.62,28.02 C290.14,28.22 289.59,28.32 288.97,28.32 C287.81,28.32 287.23,27.7 287.23,26.46 L287.23,26.46 L287.23,18.9 L290.53,18.9 L290.53,15.81 L287.23,15.81 L287.23,12.42 L282.91,12.42 L282.91,15.81 L280.9,15.81 L280.9,18.9 L282.91,18.9 L282.91,26.85 C282.91,28.47 283.34,29.7 284.2,30.54 C285.06,31.38 286.32,31.8 287.98,31.8 Z M297.94,31.83 C300.04,31.83 301.62,31.09 302.68,29.61 L302.68,29.61 L302.68,31.5 L306.91,31.5 L306.91,21.27 C306.91,17.39 304.72,15.45 300.34,15.45 C298.32,15.45 296.67,15.9 295.39,16.8 C294.11,17.7 293.41,19.04 293.29,20.82 L293.29,20.82 L297.4,20.82 C297.6,19.34 298.49,18.6 300.07,18.6 C301.01,18.6 301.67,18.835 302.05,19.305 C302.43,19.775 302.62,20.5 302.62,21.48 L302.62,21.48 L302.62,22.11 L300.85,22.11 C295.41,22.11 292.69,23.79 292.69,27.15 C292.69,28.71 293.18,29.88 294.16,30.66 C295.14,31.44 296.4,31.83 297.94,31.83 Z M299.23,28.8 C297.71,28.8 296.95,28.17 296.95,26.91 C296.95,26.11 297.285,25.54 297.955,25.2 C298.625,24.86 299.62,24.69 300.94,24.69 L300.94,24.69 L302.62,24.69 L302.62,26.01 C302.62,26.87 302.3,27.55 301.66,28.05 C301.02,28.55 300.21,28.8 299.23,28.8 Z M314.98,31.5 L314.98,23.64 C314.98,22.2 315.405,21.165 316.255,20.535 C317.105,19.905 318.37,19.6 320.05,19.62 L320.05,19.62 L320.05,15.57 C317.67,15.59 315.98,16.67 314.98,18.81 L314.98,18.81 L314.98,15.81 L310.63,15.81 L310.63,31.5 L314.98,31.5 Z M328.78,31.8 C329.74,31.8 330.62,31.66 331.42,31.38 L331.42,31.38 L331.42,28.02 C330.94,28.22 330.39,28.32 329.77,28.32 C328.61,28.32 328.03,27.7 328.03,26.46 L328.03,26.46 L328.03,18.9 L331.33,18.9 L331.33,15.81 L328.03,15.81 L328.03,12.42 L323.71,12.42 L323.71,15.81 L321.7,15.81 L321.7,18.9 L323.71,18.9 L323.71,26.85 C323.71,28.47 324.14,29.7 325,30.54 C325.86,31.38 327.12,31.8 328.78,31.8 Z M341.59,31.83 C343.73,31.83 345.45,31.375 346.75,30.465 C348.05,29.555 348.83,28.25 349.09,26.55 L349.09,26.55 L344.98,26.55 C344.68,28.01 343.59,28.74 341.71,28.74 C340.53,28.74 339.6,28.38 338.92,27.66 C338.24,26.94 337.87,25.93 337.81,24.63 L337.81,24.63 L349.12,24.63 L349.12,23.43 C349.12,20.79 348.395,18.8 346.945,17.46 C345.495,16.12 343.67,15.45 341.47,15.45 C339.15,15.45 337.225,16.2 335.695,17.7 C334.165,19.2 333.4,21.17 333.4,23.61 L333.4,23.61 L333.4,23.85 C333.4,26.31 334.16,28.255 335.68,29.685 C337.2,31.115 339.17,31.83 341.59,31.83 Z M344.89,21.96 L337.87,21.96 C338.03,20.84 338.425,19.975 339.055,19.365 C339.685,18.755 340.49,18.45 341.47,18.45 C343.61,18.45 344.75,19.62 344.89,21.96 L344.89,21.96 Z M356.32,31.5 L356.32,23.64 C356.32,22.2 356.745,21.165 357.595,20.535 C358.445,19.905 359.71,19.6 361.39,19.62 L361.39,19.62 L361.39,15.57 C359.01,15.59 357.32,16.67 356.32,18.81 L356.32,18.81 L356.32,15.81 L351.97,15.81 L351.97,31.5 L356.32,31.5 Z" id="react-native-starter" fill-rule="nonzero"></path>
            <path d="M48.125,0 C51.9219577,-6.97489806e-16 55,3.07804234 55,6.875 L55,37.125 C55,40.9219577 51.9219577,44 48.125,44 L6.875,44 C3.07804234,44 4.64993204e-16,40.9219577 0,37.125 L0,6.875 C-4.64993204e-16,3.07804234 3.07804234,6.97489806e-16 6.875,0 L48.125,0 Z M26.59525,9.96875 L10.65625,9.96875 L10.65625,33.56375 L17.45425,33.56375 L17.45425,25.21475 L24.74725,25.21475 L24.74725,20.23175 L17.45425,20.23175 L17.45425,15.21575 L26.59525,15.21575 L26.59525,9.96875 Z M39.74575,15.72175 L35.02675,15.72175 L35.81875,19.78075 L32.18875,18.03175 L31.06675,22.09075 L34.92775,22.51975 L31.99075,25.48975 L35.55475,28.03075 L37.36975,24.23575 L39.21775,28.03075 L42.74875,25.48975 L39.81175,22.51975 L43.70575,22.09075 L42.55075,18.03175 L38.95375,19.78075 L39.74575,15.72175 Z" id="Rectangle-2"></path>
        </g>
    </g>
</svg>
